<mxfile host="app.diagrams.net" modified="2024-04-15T08:19:36.358Z" agent="Mozilla/5.0 (Macintosh; Intel Mac OS X 10_15_7) AppleWebKit/537.36 (KHTML, like Gecko) Chrome/123.0.0.0 Safari/537.36 Edg/123.0.0.0" etag="WP7qlbUzrEajGCc1wZbZ" version="24.0.5" type="github" pages="2">
  <diagram name="第 1 页" id="yNpOiWvQIqk7lrjXULh-">
    <mxGraphModel dx="1426" dy="791" grid="1" gridSize="10" guides="1" tooltips="1" connect="1" arrows="1" fold="1" page="1" pageScale="1" pageWidth="2339" pageHeight="3300" math="1" shadow="0">
      <root>
        <mxCell id="0" />
        <mxCell id="1" parent="0" />
        <mxCell id="RO7L211PAKiRPaYpDe8s-24" value="" style="rounded=0;whiteSpace=wrap;html=1;fillColor=none;dashed=1;" parent="1" vertex="1">
          <mxGeometry x="376.55" y="650" width="120" height="320" as="geometry" />
        </mxCell>
        <mxCell id="RFllEehOtCFyuf5omVys-12" value="E" style="ellipse;whiteSpace=wrap;html=1;aspect=fixed;strokeWidth=2;fontFamily=Times New Roman;container=0;fontSize=44;" parent="1" vertex="1">
          <mxGeometry x="432.0689655172414" y="716.6023166023166" width="50" height="50" as="geometry" />
        </mxCell>
        <mxCell id="RFllEehOtCFyuf5omVys-16" value="B" style="ellipse;whiteSpace=wrap;html=1;aspect=fixed;strokeWidth=2;fontFamily=Times New Roman;container=0;fontSize=44;" parent="1" vertex="1">
          <mxGeometry x="432.0689655172414" y="906.8339768339769" width="50" height="50" as="geometry" />
        </mxCell>
        <mxCell id="RFllEehOtCFyuf5omVys-17" style="edgeStyle=orthogonalEdgeStyle;rounded=0;orthogonalLoop=1;jettySize=auto;html=1;exitX=0.5;exitY=1;exitDx=0;exitDy=0;entryX=0.5;entryY=0;entryDx=0;entryDy=0;endArrow=none;endFill=0;strokeWidth=2;fontFamily=Times New Roman;fontSize=44;" parent="1" source="RFllEehOtCFyuf5omVys-12" target="RFllEehOtCFyuf5omVys-16" edge="1">
          <mxGeometry relative="1" as="geometry" />
        </mxCell>
        <mxCell id="RFllEehOtCFyuf5omVys-20" value="$$W_{v_1,v_2}$$" style="text;html=1;strokeColor=none;fillColor=none;align=center;verticalAlign=middle;whiteSpace=wrap;rounded=0;fontFamily=Times New Roman;container=0;fontSize=40;" parent="1" vertex="1">
          <mxGeometry x="396.9" y="819.0347490347491" width="93.10344827586206" height="43.899613899613904" as="geometry" />
        </mxCell>
        <mxCell id="RFllEehOtCFyuf5omVys-22" value="B" style="ellipse;whiteSpace=wrap;html=1;aspect=fixed;strokeWidth=2;fontFamily=Times New Roman;container=0;fontSize=44;" parent="1" vertex="1">
          <mxGeometry x="582.5862068965517" y="716.6023166023166" width="50" height="50" as="geometry" />
        </mxCell>
        <mxCell id="RFllEehOtCFyuf5omVys-23" value="C" style="ellipse;whiteSpace=wrap;html=1;aspect=fixed;strokeWidth=2;fontFamily=Times New Roman;container=0;fontSize=44;" parent="1" vertex="1">
          <mxGeometry x="582.5862068965517" y="906.8339768339769" width="50" height="50" as="geometry" />
        </mxCell>
        <mxCell id="RFllEehOtCFyuf5omVys-21" style="edgeStyle=orthogonalEdgeStyle;rounded=0;orthogonalLoop=1;jettySize=auto;html=1;exitX=0.5;exitY=1;exitDx=0;exitDy=0;entryX=0.5;entryY=0;entryDx=0;entryDy=0;endArrow=none;endFill=0;strokeWidth=2;fontFamily=Times New Roman;fontSize=44;" parent="1" source="RFllEehOtCFyuf5omVys-22" target="RFllEehOtCFyuf5omVys-23" edge="1">
          <mxGeometry relative="1" as="geometry" />
        </mxCell>
        <mxCell id="RFllEehOtCFyuf5omVys-24" value="$$W_{v_3,v_4}$$" style="text;html=1;strokeColor=none;fillColor=none;align=center;verticalAlign=middle;whiteSpace=wrap;rounded=0;fontFamily=Times New Roman;container=0;fontSize=44;" parent="1" vertex="1">
          <mxGeometry x="543.9972413793104" y="819.0347490347491" width="93.10344827586206" height="43.899613899613904" as="geometry" />
        </mxCell>
        <mxCell id="RFllEehOtCFyuf5omVys-30" value="D" style="ellipse;whiteSpace=wrap;html=1;aspect=fixed;strokeWidth=2;fontFamily=Times New Roman;container=0;fontSize=44;" parent="1" vertex="1">
          <mxGeometry x="742.4137931034483" y="716.6023166023166" width="50" height="50" as="geometry" />
        </mxCell>
        <mxCell id="RFllEehOtCFyuf5omVys-31" value="E" style="ellipse;whiteSpace=wrap;html=1;aspect=fixed;strokeWidth=2;fontFamily=Times New Roman;container=0;fontSize=44;" parent="1" vertex="1">
          <mxGeometry x="742.4137931034483" y="906.8339768339769" width="50" height="50" as="geometry" />
        </mxCell>
        <mxCell id="RFllEehOtCFyuf5omVys-29" style="edgeStyle=orthogonalEdgeStyle;rounded=0;orthogonalLoop=1;jettySize=auto;html=1;exitX=0.5;exitY=1;exitDx=0;exitDy=0;entryX=0.5;entryY=0;entryDx=0;entryDy=0;endArrow=none;endFill=0;strokeWidth=2;fontFamily=Times New Roman;fontSize=44;" parent="1" source="RFllEehOtCFyuf5omVys-30" target="RFllEehOtCFyuf5omVys-31" edge="1">
          <mxGeometry relative="1" as="geometry" />
        </mxCell>
        <mxCell id="RFllEehOtCFyuf5omVys-32" value="$$W_{v_5,v_6}$$" style="text;html=1;strokeColor=none;fillColor=none;align=center;verticalAlign=middle;whiteSpace=wrap;rounded=0;fontFamily=Times New Roman;container=0;fontSize=44;" parent="1" vertex="1">
          <mxGeometry x="705.0048275862069" y="819.0347490347491" width="93.10344827586206" height="43.899613899613904" as="geometry" />
        </mxCell>
        <mxCell id="RFllEehOtCFyuf5omVys-35" value="$$O_{t+1}$$" style="text;html=1;strokeColor=none;fillColor=none;align=center;verticalAlign=middle;whiteSpace=wrap;rounded=0;fontFamily=Times New Roman;fontSize=44;" parent="1" vertex="1">
          <mxGeometry x="748.88" y="1000" width="60" height="30" as="geometry" />
        </mxCell>
        <mxCell id="RFllEehOtCFyuf5omVys-36" value="$$O_{t}$$" style="text;html=1;strokeColor=none;fillColor=none;align=center;verticalAlign=middle;whiteSpace=wrap;rounded=0;fontFamily=Times New Roman;fontSize=44;" parent="1" vertex="1">
          <mxGeometry x="572.5899999999999" y="1000" width="60" height="30" as="geometry" />
        </mxCell>
        <mxCell id="RFllEehOtCFyuf5omVys-37" value="$$O_{t-1}$$" style="text;html=1;strokeColor=none;fillColor=none;align=center;verticalAlign=middle;whiteSpace=wrap;rounded=0;fontFamily=Times New Roman;fontSize=44;" parent="1" vertex="1">
          <mxGeometry x="432.06999999999994" y="1000" width="60" height="30" as="geometry" />
        </mxCell>
        <mxCell id="RFllEehOtCFyuf5omVys-41" value="&lt;font style=&quot;font-size: 44px;&quot; face=&quot;Times New Roman&quot;&gt;......&lt;/font&gt;" style="text;html=1;strokeColor=none;fillColor=none;align=center;verticalAlign=middle;whiteSpace=wrap;rounded=0;" parent="1" vertex="1">
          <mxGeometry x="280" y="789.03" width="60" height="30" as="geometry" />
        </mxCell>
        <mxCell id="RFllEehOtCFyuf5omVys-42" value="&lt;font style=&quot;font-size: 44px;&quot; face=&quot;Times New Roman&quot;&gt;......&lt;/font&gt;" style="text;html=1;strokeColor=none;fillColor=none;align=center;verticalAlign=middle;whiteSpace=wrap;rounded=0;" parent="1" vertex="1">
          <mxGeometry x="280" y="896.83" width="60" height="30" as="geometry" />
        </mxCell>
        <mxCell id="RFllEehOtCFyuf5omVys-59" value="" style="group" parent="1" vertex="1" connectable="0">
          <mxGeometry x="1000" y="696.6" width="60" height="70" as="geometry" />
        </mxCell>
        <mxCell id="RFllEehOtCFyuf5omVys-48" value="&lt;font style=&quot;font-size: 44px;&quot; face=&quot;Times New Roman&quot;&gt;insertion&lt;/font&gt;" style="text;html=1;strokeColor=none;fillColor=none;align=center;verticalAlign=middle;whiteSpace=wrap;rounded=0;" parent="RFllEehOtCFyuf5omVys-59" vertex="1">
          <mxGeometry width="60" height="30" as="geometry" />
        </mxCell>
        <mxCell id="RFllEehOtCFyuf5omVys-49" value="&lt;font style=&quot;font-size: 44px;&quot; face=&quot;Times New Roman&quot;&gt;$$(v_5,v_6)$$&lt;/font&gt;" style="text;html=1;strokeColor=none;fillColor=none;align=center;verticalAlign=middle;whiteSpace=wrap;rounded=0;" parent="RFllEehOtCFyuf5omVys-59" vertex="1">
          <mxGeometry y="40" width="60" height="30" as="geometry" />
        </mxCell>
        <mxCell id="RFllEehOtCFyuf5omVys-52" value="&lt;font style=&quot;font-size: 44px;&quot; face=&quot;Times New Roman&quot;&gt;deletion&lt;/font&gt;" style="text;html=1;strokeColor=none;fillColor=none;align=center;verticalAlign=middle;whiteSpace=wrap;rounded=0;container=0;" parent="1" vertex="1">
          <mxGeometry x="1000" y="888.53" width="60" height="30" as="geometry" />
        </mxCell>
        <mxCell id="RFllEehOtCFyuf5omVys-53" value="&lt;font style=&quot;font-size: 44px;&quot; face=&quot;Times New Roman&quot;&gt;$$(v_3,v_4)$$&lt;/font&gt;" style="text;html=1;strokeColor=none;fillColor=none;align=center;verticalAlign=middle;whiteSpace=wrap;rounded=0;container=0;" parent="1" vertex="1">
          <mxGeometry x="1000" y="926.8299999999999" width="60" height="30" as="geometry" />
        </mxCell>
        <mxCell id="RFllEehOtCFyuf5omVys-65" value="" style="endArrow=classic;html=1;rounded=0;edgeStyle=orthogonalEdgeStyle;strokeWidth=2;" parent="1" edge="1">
          <mxGeometry width="50" height="50" relative="1" as="geometry">
            <mxPoint x="600" y="1049" as="sourcePoint" />
            <mxPoint x="1031" y="980" as="targetPoint" />
            <Array as="points">
              <mxPoint x="600" y="1049" />
              <mxPoint x="600" y="1100" />
              <mxPoint x="1031" y="1100" />
            </Array>
          </mxGeometry>
        </mxCell>
        <mxCell id="RFllEehOtCFyuf5omVys-66" value="&lt;font style=&quot;font-size: 40px;&quot;&gt;Newly ranked &lt;br&gt;&lt;br&gt;&lt;/font&gt;" style="text;html=1;strokeColor=none;fillColor=none;align=center;verticalAlign=middle;whiteSpace=wrap;rounded=0;fontFamily=Times New Roman;" parent="1" vertex="1">
          <mxGeometry x="1205" y="690" width="290" height="50" as="geometry" />
        </mxCell>
        <mxCell id="2nz0odJnfSWqx3YoXZLA-11" value="" style="endArrow=classic;html=1;rounded=0;strokeWidth=2;" parent="1" edge="1">
          <mxGeometry width="50" height="50" relative="1" as="geometry">
            <mxPoint x="1120" y="719.88" as="sourcePoint" />
            <mxPoint x="1220" y="720.01" as="targetPoint" />
          </mxGeometry>
        </mxCell>
        <mxCell id="RO7L211PAKiRPaYpDe8s-2" value="&lt;font style=&quot;font-size: 40px;&quot; face=&quot;Times New Roman&quot;&gt;$$v_1$$&lt;/font&gt;" style="text;html=1;strokeColor=none;fillColor=none;align=center;verticalAlign=middle;whiteSpace=wrap;rounded=0;" parent="1" vertex="1">
          <mxGeometry x="376.55" y="716.6" width="60" height="30" as="geometry" />
        </mxCell>
        <mxCell id="RO7L211PAKiRPaYpDe8s-3" value="$$v_2$$" style="text;html=1;strokeColor=none;fillColor=none;align=center;verticalAlign=middle;whiteSpace=wrap;rounded=0;fontFamily=Times New Roman;fontSize=40;" parent="1" vertex="1">
          <mxGeometry x="376.55" y="906.83" width="60" height="30" as="geometry" />
        </mxCell>
        <mxCell id="RO7L211PAKiRPaYpDe8s-4" value="$$v_3$$" style="text;html=1;strokeColor=none;fillColor=none;align=center;verticalAlign=middle;whiteSpace=wrap;rounded=0;fontFamily=Times New Roman;fontSize=40;" parent="1" vertex="1">
          <mxGeometry x="531.0500000000001" y="716.6" width="60" height="30" as="geometry" />
        </mxCell>
        <mxCell id="RO7L211PAKiRPaYpDe8s-5" value="$$v_4$$" style="text;html=1;strokeColor=none;fillColor=none;align=center;verticalAlign=middle;whiteSpace=wrap;rounded=0;fontFamily=Times New Roman;fontSize=40;" parent="1" vertex="1">
          <mxGeometry x="529.0500000000001" y="910" width="60" height="30" as="geometry" />
        </mxCell>
        <mxCell id="RO7L211PAKiRPaYpDe8s-6" value="$$v_5$$" style="text;html=1;strokeColor=none;fillColor=none;align=center;verticalAlign=middle;whiteSpace=wrap;rounded=0;fontFamily=Times New Roman;fontSize=40;" parent="1" vertex="1">
          <mxGeometry x="688.88" y="716.6" width="60" height="30" as="geometry" />
        </mxCell>
        <mxCell id="RO7L211PAKiRPaYpDe8s-7" value="$$v_2$$" style="text;html=1;strokeColor=none;fillColor=none;align=center;verticalAlign=middle;whiteSpace=wrap;rounded=0;fontFamily=Times New Roman;fontSize=40;" parent="1" vertex="1">
          <mxGeometry x="688.88" y="910" width="60" height="30" as="geometry" />
        </mxCell>
        <mxCell id="RO7L211PAKiRPaYpDe8s-10" value="&lt;h2 style=&quot;box-sizing: border-box; outline: 0px; margin: 24px 0px 8px; padding: 0px; font-family: &amp;quot;PingFang SC&amp;quot;, &amp;quot;Microsoft YaHei&amp;quot;, SimHei, Arial, SimSun; font-size: 22px; color: rgb(79, 79, 79); line-height: 32px; overflow-wrap: break-word; text-align: start; background-color: rgb(255, 255, 255);&quot;&gt;&lt;span style=&quot;box-sizing: border-box; outline: 0px; margin: 24px 0px 8px; padding: 0px; color: rgb(243, 59, 69); overflow-wrap: break-word;&quot;&gt;&lt;/span&gt;&lt;/h2&gt;" style="text;html=1;strokeColor=none;fillColor=none;align=center;verticalAlign=middle;whiteSpace=wrap;rounded=0;" parent="1" vertex="1">
          <mxGeometry x="410" y="620" width="60" height="30" as="geometry" />
        </mxCell>
        <mxCell id="RO7L211PAKiRPaYpDe8s-16" value="&lt;font style=&quot;font-size: 40px;&quot; face=&quot;Times New Roman&quot;&gt;+&lt;/font&gt;" style="text;html=1;strokeColor=none;fillColor=none;align=center;verticalAlign=middle;whiteSpace=wrap;rounded=0;fontStyle=1" parent="1" vertex="1">
          <mxGeometry x="427.07" y="660" width="60" height="30" as="geometry" />
        </mxCell>
        <mxCell id="RO7L211PAKiRPaYpDe8s-20" value="" style="endArrow=none;html=1;rounded=0;fontFamily=Times New Roman;fontSize=40;endFill=0;strokeWidth=3;" parent="1" edge="1">
          <mxGeometry width="50" height="50" relative="1" as="geometry">
            <mxPoint x="591.05" y="674.5" as="sourcePoint" />
            <mxPoint x="615" y="674.5" as="targetPoint" />
          </mxGeometry>
        </mxCell>
        <mxCell id="RO7L211PAKiRPaYpDe8s-23" value="&lt;font style=&quot;font-size: 40px;&quot; face=&quot;Times New Roman&quot;&gt;+&lt;/font&gt;" style="text;html=1;strokeColor=none;fillColor=none;align=center;verticalAlign=middle;whiteSpace=wrap;rounded=0;fontStyle=1" parent="1" vertex="1">
          <mxGeometry x="730" y="660" width="60" height="30" as="geometry" />
        </mxCell>
        <mxCell id="RO7L211PAKiRPaYpDe8s-26" value="" style="rounded=0;whiteSpace=wrap;html=1;fillColor=none;dashed=1;" parent="1" vertex="1">
          <mxGeometry x="531.05" y="650" width="120" height="320" as="geometry" />
        </mxCell>
        <mxCell id="RO7L211PAKiRPaYpDe8s-27" value="" style="rounded=0;whiteSpace=wrap;html=1;fillColor=none;dashed=1;" parent="1" vertex="1">
          <mxGeometry x="691.56" y="650" width="120" height="320" as="geometry" />
        </mxCell>
        <mxCell id="RO7L211PAKiRPaYpDe8s-30" value="&lt;font style=&quot;font-size: 40px;&quot;&gt;Replenished&amp;nbsp; &lt;br&gt;answers&amp;nbsp;&lt;/font&gt;" style="text;html=1;strokeColor=none;fillColor=none;align=left;verticalAlign=middle;whiteSpace=wrap;rounded=0;fontFamily=Times New Roman;" parent="1" vertex="1">
          <mxGeometry x="1242" y="910.2499999999999" width="470" height="23.17" as="geometry" />
        </mxCell>
        <mxCell id="RO7L211PAKiRPaYpDe8s-36" value="" style="endArrow=classic;html=1;rounded=0;exitX=0.66;exitY=-0.006;exitDx=0;exitDy=0;exitPerimeter=0;edgeStyle=elbowEdgeStyle;elbow=vertical;strokeWidth=2;" parent="1" edge="1">
          <mxGeometry width="50" height="50" relative="1" as="geometry">
            <mxPoint x="756.3800000000002" y="648.0799999999999" as="sourcePoint" />
            <mxPoint x="1040" y="690" as="targetPoint" />
            <Array as="points">
              <mxPoint x="895.62" y="620" />
            </Array>
          </mxGeometry>
        </mxCell>
        <mxCell id="RO7L211PAKiRPaYpDe8s-37" value="" style="endArrow=classic;html=1;rounded=0;strokeWidth=2;" parent="1" edge="1">
          <mxGeometry width="50" height="50" relative="1" as="geometry">
            <mxPoint x="1120" y="926.83" as="sourcePoint" />
            <mxPoint x="1220" y="926.83" as="targetPoint" />
          </mxGeometry>
        </mxCell>
        <mxCell id="V5f1bt5WQAJxFRKk5itd-1" value="&lt;font style=&quot;font-size: 44px;&quot; face=&quot;Times New Roman&quot;&gt;......&lt;/font&gt;" style="text;html=1;strokeColor=none;fillColor=none;align=center;verticalAlign=middle;whiteSpace=wrap;rounded=0;" parent="1" vertex="1">
          <mxGeometry x="280" y="660" width="60" height="30" as="geometry" />
        </mxCell>
        <mxCell id="V5f1bt5WQAJxFRKk5itd-3" value="&lt;font style=&quot;font-size: 40px;&quot; face=&quot;Times New Roman&quot;&gt;Top&amp;nbsp;&lt;/font&gt;" style="text;html=1;strokeColor=none;fillColor=none;align=center;verticalAlign=middle;whiteSpace=wrap;rounded=0;" parent="1" vertex="1">
          <mxGeometry x="1242" y="726.6" width="60" height="30" as="geometry" />
        </mxCell>
        <mxCell id="V5f1bt5WQAJxFRKk5itd-4" value="&lt;font style=&quot;font-size: 40px;&quot; face=&quot;Times New Roman&quot;&gt;$$k$$&lt;/font&gt;" style="text;html=1;strokeColor=none;fillColor=none;align=center;verticalAlign=middle;whiteSpace=wrap;rounded=0;" parent="1" vertex="1">
          <mxGeometry x="1289" y="728" width="60" height="30" as="geometry" />
        </mxCell>
        <mxCell id="V5f1bt5WQAJxFRKk5itd-5" value="&lt;font style=&quot;font-size: 40px;&quot; face=&quot;Times New Roman&quot;&gt;answers&lt;/font&gt;" style="text;html=1;strokeColor=none;fillColor=none;align=center;verticalAlign=middle;whiteSpace=wrap;rounded=0;" parent="1" vertex="1">
          <mxGeometry x="1377" y="726.6" width="60" height="30" as="geometry" />
        </mxCell>
      </root>
    </mxGraphModel>
  </diagram>
  <diagram id="iwDPirXIRPiHLJmcuULx" name="第 2 页">
    <mxGraphModel dx="1426" dy="791" grid="1" gridSize="10" guides="1" tooltips="1" connect="1" arrows="1" fold="1" page="1" pageScale="1" pageWidth="1169" pageHeight="1654" math="1" shadow="0">
      <root>
        <mxCell id="0" />
        <mxCell id="1" parent="0" />
        <mxCell id="jZg6cOxOXHFKykvGytTe-1" style="rounded=0;orthogonalLoop=1;jettySize=auto;html=1;exitX=0.5;exitY=1;exitDx=0;exitDy=0;entryX=0.5;entryY=0;entryDx=0;entryDy=0;endArrow=none;endFill=0;fontFamily=Times New Roman;fontSize=25;" edge="1" parent="1" source="jZg6cOxOXHFKykvGytTe-5" target="jZg6cOxOXHFKykvGytTe-33">
          <mxGeometry relative="1" as="geometry" />
        </mxCell>
        <mxCell id="jZg6cOxOXHFKykvGytTe-2" value="50" style="edgeLabel;html=1;align=center;verticalAlign=middle;resizable=0;points=[];fontFamily=Times New Roman;fontSize=25;" vertex="1" connectable="0" parent="jZg6cOxOXHFKykvGytTe-1">
          <mxGeometry x="-0.0436" y="-2" relative="1" as="geometry">
            <mxPoint as="offset" />
          </mxGeometry>
        </mxCell>
        <mxCell id="jZg6cOxOXHFKykvGytTe-3" style="edgeStyle=none;shape=connector;rounded=0;orthogonalLoop=1;jettySize=auto;html=1;exitX=0.5;exitY=1;exitDx=0;exitDy=0;entryX=0.5;entryY=0;entryDx=0;entryDy=0;labelBackgroundColor=default;strokeColor=default;align=center;verticalAlign=middle;fontFamily=Times New Roman;fontSize=25;fontColor=default;endArrow=none;endFill=0;" edge="1" parent="1" source="jZg6cOxOXHFKykvGytTe-5" target="jZg6cOxOXHFKykvGytTe-49">
          <mxGeometry relative="1" as="geometry" />
        </mxCell>
        <mxCell id="jZg6cOxOXHFKykvGytTe-4" value="10" style="edgeLabel;html=1;align=center;verticalAlign=middle;resizable=0;points=[];fontFamily=Times New Roman;fontSize=25;" vertex="1" connectable="0" parent="jZg6cOxOXHFKykvGytTe-3">
          <mxGeometry x="-0.094" y="-1" relative="1" as="geometry">
            <mxPoint x="-4" y="-1" as="offset" />
          </mxGeometry>
        </mxCell>
        <mxCell id="jZg6cOxOXHFKykvGytTe-5" value="D" style="ellipse;whiteSpace=wrap;html=1;aspect=fixed;fontFamily=Times New Roman;fontSize=40;fillColor=none;gradientColor=none;strokeColor=#000000;" vertex="1" parent="1">
          <mxGeometry x="380" y="390" width="50" height="50" as="geometry" />
        </mxCell>
        <mxCell id="jZg6cOxOXHFKykvGytTe-6" style="edgeStyle=none;shape=connector;rounded=0;orthogonalLoop=1;jettySize=auto;html=1;exitX=0.5;exitY=1;exitDx=0;exitDy=0;entryX=0.5;entryY=0;entryDx=0;entryDy=0;labelBackgroundColor=default;strokeColor=default;align=center;verticalAlign=middle;fontFamily=Times New Roman;fontSize=25;fontColor=default;endArrow=none;endFill=0;" edge="1" parent="1" source="jZg6cOxOXHFKykvGytTe-10" target="jZg6cOxOXHFKykvGytTe-49">
          <mxGeometry relative="1" as="geometry" />
        </mxCell>
        <mxCell id="jZg6cOxOXHFKykvGytTe-7" value="10" style="edgeLabel;html=1;align=center;verticalAlign=middle;resizable=0;points=[];fontSize=25;fontFamily=Times New Roman;fontColor=default;" vertex="1" connectable="0" parent="jZg6cOxOXHFKykvGytTe-6">
          <mxGeometry x="-0.5673" y="2" relative="1" as="geometry">
            <mxPoint x="-6" y="-1" as="offset" />
          </mxGeometry>
        </mxCell>
        <mxCell id="jZg6cOxOXHFKykvGytTe-8" style="edgeStyle=none;shape=connector;rounded=0;orthogonalLoop=1;jettySize=auto;html=1;exitX=0.5;exitY=1;exitDx=0;exitDy=0;entryX=0.5;entryY=0;entryDx=0;entryDy=0;labelBackgroundColor=default;strokeColor=default;align=center;verticalAlign=middle;fontFamily=Times New Roman;fontSize=25;fontColor=default;endArrow=none;endFill=0;" edge="1" parent="1" source="jZg6cOxOXHFKykvGytTe-10" target="jZg6cOxOXHFKykvGytTe-36">
          <mxGeometry relative="1" as="geometry" />
        </mxCell>
        <mxCell id="jZg6cOxOXHFKykvGytTe-9" value="10" style="edgeLabel;html=1;align=center;verticalAlign=middle;resizable=0;points=[];fontSize=25;fontFamily=Times New Roman;fontColor=default;" vertex="1" connectable="0" parent="jZg6cOxOXHFKykvGytTe-8">
          <mxGeometry x="-0.6588" y="3" relative="1" as="geometry">
            <mxPoint x="-4" y="6" as="offset" />
          </mxGeometry>
        </mxCell>
        <mxCell id="jZg6cOxOXHFKykvGytTe-10" value="D" style="ellipse;whiteSpace=wrap;html=1;aspect=fixed;fontFamily=Times New Roman;fontSize=40;fillColor=none;gradientColor=none;strokeColor=#000000;" vertex="1" parent="1">
          <mxGeometry x="515" y="390" width="50" height="50" as="geometry" />
        </mxCell>
        <mxCell id="jZg6cOxOXHFKykvGytTe-11" style="edgeStyle=none;shape=connector;rounded=0;orthogonalLoop=1;jettySize=auto;html=1;exitX=0.5;exitY=1;exitDx=0;exitDy=0;entryX=0.5;entryY=0;entryDx=0;entryDy=0;labelBackgroundColor=default;strokeColor=default;align=center;verticalAlign=middle;fontFamily=Times New Roman;fontSize=25;fontColor=default;endArrow=none;endFill=0;" edge="1" parent="1" source="jZg6cOxOXHFKykvGytTe-15" target="jZg6cOxOXHFKykvGytTe-49">
          <mxGeometry relative="1" as="geometry" />
        </mxCell>
        <mxCell id="jZg6cOxOXHFKykvGytTe-12" value="10" style="edgeLabel;html=1;align=center;verticalAlign=middle;resizable=0;points=[];fontSize=25;fontFamily=Times New Roman;fontColor=default;" vertex="1" connectable="0" parent="jZg6cOxOXHFKykvGytTe-11">
          <mxGeometry x="-0.7805" relative="1" as="geometry">
            <mxPoint x="-5" y="10" as="offset" />
          </mxGeometry>
        </mxCell>
        <mxCell id="jZg6cOxOXHFKykvGytTe-13" style="edgeStyle=none;shape=connector;rounded=0;orthogonalLoop=1;jettySize=auto;html=1;exitX=0.5;exitY=1;exitDx=0;exitDy=0;entryX=0.5;entryY=0;entryDx=0;entryDy=0;labelBackgroundColor=default;strokeColor=default;align=center;verticalAlign=middle;fontFamily=Times New Roman;fontSize=25;fontColor=default;endArrow=none;endFill=0;" edge="1" parent="1" source="jZg6cOxOXHFKykvGytTe-15" target="jZg6cOxOXHFKykvGytTe-36">
          <mxGeometry relative="1" as="geometry" />
        </mxCell>
        <mxCell id="jZg6cOxOXHFKykvGytTe-14" value="&lt;font style=&quot;font-size: 25px;&quot;&gt;10&lt;/font&gt;" style="edgeLabel;html=1;align=center;verticalAlign=middle;resizable=0;points=[];fontSize=25;fontFamily=Times New Roman;fontColor=default;" vertex="1" connectable="0" parent="jZg6cOxOXHFKykvGytTe-13">
          <mxGeometry x="-0.6254" y="3" relative="1" as="geometry">
            <mxPoint as="offset" />
          </mxGeometry>
        </mxCell>
        <mxCell id="jZg6cOxOXHFKykvGytTe-15" value="D" style="ellipse;whiteSpace=wrap;html=1;aspect=fixed;fontFamily=Times New Roman;fontSize=40;fillColor=none;gradientColor=none;strokeColor=#000000;" vertex="1" parent="1">
          <mxGeometry x="600" y="390" width="50" height="50" as="geometry" />
        </mxCell>
        <mxCell id="jZg6cOxOXHFKykvGytTe-16" style="edgeStyle=none;shape=connector;rounded=0;orthogonalLoop=1;jettySize=auto;html=1;exitX=0.5;exitY=1;exitDx=0;exitDy=0;entryX=0.5;entryY=0;entryDx=0;entryDy=0;labelBackgroundColor=default;strokeColor=default;align=center;verticalAlign=middle;fontFamily=Times New Roman;fontSize=25;fontColor=default;endArrow=none;endFill=0;" edge="1" parent="1" source="jZg6cOxOXHFKykvGytTe-20" target="jZg6cOxOXHFKykvGytTe-49">
          <mxGeometry relative="1" as="geometry" />
        </mxCell>
        <mxCell id="jZg6cOxOXHFKykvGytTe-17" value="10" style="edgeLabel;html=1;align=center;verticalAlign=middle;resizable=0;points=[];fontSize=25;fontFamily=Times New Roman;fontColor=default;" vertex="1" connectable="0" parent="jZg6cOxOXHFKykvGytTe-16">
          <mxGeometry x="-0.7288" y="1" relative="1" as="geometry">
            <mxPoint x="-15" y="9" as="offset" />
          </mxGeometry>
        </mxCell>
        <mxCell id="jZg6cOxOXHFKykvGytTe-18" style="edgeStyle=none;shape=connector;rounded=0;orthogonalLoop=1;jettySize=auto;html=1;exitX=0.5;exitY=1;exitDx=0;exitDy=0;entryX=0.5;entryY=0;entryDx=0;entryDy=0;labelBackgroundColor=default;strokeColor=default;align=center;verticalAlign=middle;fontFamily=Helvetica;fontSize=11;fontColor=default;endArrow=none;endFill=0;" edge="1" parent="1" source="jZg6cOxOXHFKykvGytTe-20" target="jZg6cOxOXHFKykvGytTe-36">
          <mxGeometry relative="1" as="geometry" />
        </mxCell>
        <mxCell id="jZg6cOxOXHFKykvGytTe-19" value="&lt;font style=&quot;font-size: 25px;&quot; face=&quot;Times New Roman&quot;&gt;10&lt;/font&gt;" style="edgeLabel;html=1;align=center;verticalAlign=middle;resizable=0;points=[];fontSize=11;fontFamily=Helvetica;fontColor=default;" vertex="1" connectable="0" parent="jZg6cOxOXHFKykvGytTe-18">
          <mxGeometry x="-0.4" y="-4" relative="1" as="geometry">
            <mxPoint x="4" y="-14" as="offset" />
          </mxGeometry>
        </mxCell>
        <mxCell id="jZg6cOxOXHFKykvGytTe-20" value="D" style="ellipse;whiteSpace=wrap;html=1;aspect=fixed;fontFamily=Times New Roman;fontSize=40;fillColor=none;gradientColor=none;strokeColor=#000000;" vertex="1" parent="1">
          <mxGeometry x="735" y="390" width="50" height="50" as="geometry" />
        </mxCell>
        <mxCell id="jZg6cOxOXHFKykvGytTe-21" style="edgeStyle=none;shape=connector;rounded=0;orthogonalLoop=1;jettySize=auto;html=1;exitX=1;exitY=0.5;exitDx=0;exitDy=0;entryX=0;entryY=0.5;entryDx=0;entryDy=0;labelBackgroundColor=default;strokeColor=default;align=center;verticalAlign=middle;fontFamily=Times New Roman;fontSize=25;fontColor=default;endArrow=none;endFill=0;" edge="1" parent="1" source="jZg6cOxOXHFKykvGytTe-33" target="jZg6cOxOXHFKykvGytTe-49">
          <mxGeometry relative="1" as="geometry" />
        </mxCell>
        <mxCell id="jZg6cOxOXHFKykvGytTe-22" value="40" style="edgeLabel;html=1;align=center;verticalAlign=middle;resizable=0;points=[];fontSize=25;fontFamily=Times New Roman;fontColor=default;" vertex="1" connectable="0" parent="jZg6cOxOXHFKykvGytTe-21">
          <mxGeometry x="-0.1571" y="2" relative="1" as="geometry">
            <mxPoint as="offset" />
          </mxGeometry>
        </mxCell>
        <mxCell id="jZg6cOxOXHFKykvGytTe-23" style="edgeStyle=none;shape=connector;rounded=0;orthogonalLoop=1;jettySize=auto;html=1;exitX=0.5;exitY=1;exitDx=0;exitDy=0;entryX=0.5;entryY=0;entryDx=0;entryDy=0;labelBackgroundColor=default;strokeColor=default;align=center;verticalAlign=middle;fontFamily=Times New Roman;fontSize=25;fontColor=default;endArrow=none;endFill=0;" edge="1" parent="1" source="jZg6cOxOXHFKykvGytTe-33" target="jZg6cOxOXHFKykvGytTe-50">
          <mxGeometry relative="1" as="geometry" />
        </mxCell>
        <mxCell id="jZg6cOxOXHFKykvGytTe-24" value="40" style="edgeLabel;html=1;align=center;verticalAlign=middle;resizable=0;points=[];fontSize=25;fontFamily=Times New Roman;fontColor=default;" vertex="1" connectable="0" parent="jZg6cOxOXHFKykvGytTe-23">
          <mxGeometry x="-0.0321" y="1" relative="1" as="geometry">
            <mxPoint x="-10" y="-19" as="offset" />
          </mxGeometry>
        </mxCell>
        <mxCell id="jZg6cOxOXHFKykvGytTe-25" style="edgeStyle=none;shape=connector;rounded=0;orthogonalLoop=1;jettySize=auto;html=1;exitX=0.5;exitY=1;exitDx=0;exitDy=0;entryX=0.5;entryY=0;entryDx=0;entryDy=0;labelBackgroundColor=default;strokeColor=default;align=center;verticalAlign=middle;fontFamily=Times New Roman;fontSize=25;fontColor=default;endArrow=none;endFill=0;" edge="1" parent="1" source="jZg6cOxOXHFKykvGytTe-33" target="jZg6cOxOXHFKykvGytTe-53">
          <mxGeometry relative="1" as="geometry" />
        </mxCell>
        <mxCell id="jZg6cOxOXHFKykvGytTe-26" value="30" style="edgeLabel;html=1;align=center;verticalAlign=middle;resizable=0;points=[];fontSize=25;fontFamily=Times New Roman;fontColor=default;" vertex="1" connectable="0" parent="jZg6cOxOXHFKykvGytTe-25">
          <mxGeometry x="-0.029" y="1" relative="1" as="geometry">
            <mxPoint x="-11" y="-1" as="offset" />
          </mxGeometry>
        </mxCell>
        <mxCell id="jZg6cOxOXHFKykvGytTe-27" style="edgeStyle=none;shape=connector;rounded=0;orthogonalLoop=1;jettySize=auto;html=1;exitX=0.5;exitY=1;exitDx=0;exitDy=0;entryX=0.5;entryY=0;entryDx=0;entryDy=0;labelBackgroundColor=default;strokeColor=default;align=center;verticalAlign=middle;fontFamily=Helvetica;fontSize=11;fontColor=default;endArrow=none;endFill=0;" edge="1" parent="1" source="jZg6cOxOXHFKykvGytTe-33" target="jZg6cOxOXHFKykvGytTe-56">
          <mxGeometry relative="1" as="geometry" />
        </mxCell>
        <mxCell id="jZg6cOxOXHFKykvGytTe-28" value="&lt;font style=&quot;font-size: 25px;&quot; face=&quot;Times New Roman&quot;&gt;20&lt;/font&gt;" style="edgeLabel;html=1;align=center;verticalAlign=middle;resizable=0;points=[];fontSize=11;fontFamily=Helvetica;fontColor=default;" vertex="1" connectable="0" parent="jZg6cOxOXHFKykvGytTe-27">
          <mxGeometry x="-0.3002" y="6" relative="1" as="geometry">
            <mxPoint x="9" y="9" as="offset" />
          </mxGeometry>
        </mxCell>
        <mxCell id="jZg6cOxOXHFKykvGytTe-29" style="rounded=0;orthogonalLoop=1;jettySize=auto;html=1;exitX=0.5;exitY=0;exitDx=0;exitDy=0;endArrow=none;endFill=0;" edge="1" parent="1" source="jZg6cOxOXHFKykvGytTe-33" target="jZg6cOxOXHFKykvGytTe-75">
          <mxGeometry relative="1" as="geometry" />
        </mxCell>
        <mxCell id="jZg6cOxOXHFKykvGytTe-30" value="&lt;font style=&quot;font-size: 25px;&quot; face=&quot;Times New Roman&quot;&gt;10&lt;/font&gt;" style="edgeLabel;html=1;align=center;verticalAlign=middle;resizable=0;points=[];fontSize=11;fontFamily=Helvetica;fontColor=default;" vertex="1" connectable="0" parent="jZg6cOxOXHFKykvGytTe-29">
          <mxGeometry x="0.1884" y="3" relative="1" as="geometry">
            <mxPoint x="4" y="9" as="offset" />
          </mxGeometry>
        </mxCell>
        <mxCell id="jZg6cOxOXHFKykvGytTe-31" style="edgeStyle=none;shape=connector;rounded=0;orthogonalLoop=1;jettySize=auto;html=1;exitX=0.5;exitY=1;exitDx=0;exitDy=0;entryX=0.5;entryY=0;entryDx=0;entryDy=0;labelBackgroundColor=default;strokeColor=default;align=center;verticalAlign=middle;fontFamily=Helvetica;fontSize=11;fontColor=default;endArrow=none;endFill=0;" edge="1" parent="1" source="jZg6cOxOXHFKykvGytTe-33" target="jZg6cOxOXHFKykvGytTe-77">
          <mxGeometry relative="1" as="geometry" />
        </mxCell>
        <mxCell id="jZg6cOxOXHFKykvGytTe-32" value="&lt;font style=&quot;font-size: 25px;&quot; face=&quot;Times New Roman&quot;&gt;10&lt;/font&gt;" style="edgeLabel;html=1;align=center;verticalAlign=middle;resizable=0;points=[];fontSize=11;fontFamily=Helvetica;fontColor=default;" vertex="1" connectable="0" parent="jZg6cOxOXHFKykvGytTe-31">
          <mxGeometry x="0.2861" y="-4" relative="1" as="geometry">
            <mxPoint y="-13" as="offset" />
          </mxGeometry>
        </mxCell>
        <mxCell id="jZg6cOxOXHFKykvGytTe-33" value="B" style="ellipse;whiteSpace=wrap;html=1;aspect=fixed;fontFamily=Times New Roman;fontSize=40;fillColor=none;strokeColor=#000000;gradientColor=#7ea6e0;" vertex="1" parent="1">
          <mxGeometry x="330" y="610" width="50" height="50" as="geometry" />
        </mxCell>
        <mxCell id="jZg6cOxOXHFKykvGytTe-34" style="edgeStyle=none;shape=connector;rounded=0;orthogonalLoop=1;jettySize=auto;html=1;exitX=0.5;exitY=1;exitDx=0;exitDy=0;entryX=0.5;entryY=0;entryDx=0;entryDy=0;labelBackgroundColor=default;strokeColor=default;align=center;verticalAlign=middle;fontFamily=Times New Roman;fontSize=25;fontColor=default;endArrow=none;endFill=0;" edge="1" parent="1" source="jZg6cOxOXHFKykvGytTe-36" target="jZg6cOxOXHFKykvGytTe-60">
          <mxGeometry relative="1" as="geometry" />
        </mxCell>
        <mxCell id="jZg6cOxOXHFKykvGytTe-35" value="&lt;font style=&quot;font-size: 25px;&quot; face=&quot;Times New Roman&quot;&gt;10&lt;/font&gt;" style="edgeLabel;html=1;align=center;verticalAlign=middle;resizable=0;points=[];fontSize=11;fontFamily=Helvetica;fontColor=default;" vertex="1" connectable="0" parent="jZg6cOxOXHFKykvGytTe-34">
          <mxGeometry x="-0.2177" y="4" relative="1" as="geometry">
            <mxPoint y="-4" as="offset" />
          </mxGeometry>
        </mxCell>
        <mxCell id="jZg6cOxOXHFKykvGytTe-36" value="B" style="ellipse;whiteSpace=wrap;html=1;aspect=fixed;fontFamily=Times New Roman;fontSize=40;fillColor=none;strokeColor=#000000;gradientColor=#7ea6e0;" vertex="1" parent="1">
          <mxGeometry x="735" y="610" width="50" height="50" as="geometry" />
        </mxCell>
        <mxCell id="jZg6cOxOXHFKykvGytTe-37" style="edgeStyle=none;shape=connector;rounded=0;orthogonalLoop=1;jettySize=auto;html=1;exitX=1;exitY=0.5;exitDx=0;exitDy=0;entryX=0;entryY=0.5;entryDx=0;entryDy=0;labelBackgroundColor=default;strokeColor=#ff0000;align=center;verticalAlign=middle;fontFamily=Times New Roman;fontSize=25;fontColor=default;endArrow=none;endFill=0;" edge="1" parent="1" source="jZg6cOxOXHFKykvGytTe-49" target="jZg6cOxOXHFKykvGytTe-36">
          <mxGeometry relative="1" as="geometry" />
        </mxCell>
        <mxCell id="jZg6cOxOXHFKykvGytTe-38" value="&lt;font color=&quot;#ff0000&quot;&gt;50&lt;/font&gt;" style="edgeLabel;html=1;align=center;verticalAlign=middle;resizable=0;points=[];fontSize=25;fontFamily=Times New Roman;fontColor=default;" vertex="1" connectable="0" parent="jZg6cOxOXHFKykvGytTe-37">
          <mxGeometry x="-0.0588" y="-1" relative="1" as="geometry">
            <mxPoint x="3" as="offset" />
          </mxGeometry>
        </mxCell>
        <mxCell id="jZg6cOxOXHFKykvGytTe-39" style="edgeStyle=none;shape=connector;rounded=0;orthogonalLoop=1;jettySize=auto;html=1;exitX=0.5;exitY=1;exitDx=0;exitDy=0;entryX=0.5;entryY=0;entryDx=0;entryDy=0;labelBackgroundColor=default;strokeColor=default;align=center;verticalAlign=middle;fontFamily=Times New Roman;fontSize=25;fontColor=default;endArrow=none;endFill=0;" edge="1" parent="1" source="jZg6cOxOXHFKykvGytTe-49" target="jZg6cOxOXHFKykvGytTe-50">
          <mxGeometry relative="1" as="geometry" />
        </mxCell>
        <mxCell id="jZg6cOxOXHFKykvGytTe-40" value="40" style="edgeLabel;html=1;align=center;verticalAlign=middle;resizable=0;points=[];fontSize=25;fontFamily=Times New Roman;fontColor=default;" vertex="1" connectable="0" parent="jZg6cOxOXHFKykvGytTe-39">
          <mxGeometry x="-0.347" y="-4" relative="1" as="geometry">
            <mxPoint x="-2" y="1" as="offset" />
          </mxGeometry>
        </mxCell>
        <mxCell id="jZg6cOxOXHFKykvGytTe-41" style="edgeStyle=none;shape=connector;rounded=0;orthogonalLoop=1;jettySize=auto;html=1;exitX=0.5;exitY=1;exitDx=0;exitDy=0;entryX=0.5;entryY=0;entryDx=0;entryDy=0;labelBackgroundColor=default;strokeColor=default;align=center;verticalAlign=middle;fontFamily=Times New Roman;fontSize=25;fontColor=default;endArrow=none;endFill=0;" edge="1" parent="1" source="jZg6cOxOXHFKykvGytTe-49" target="jZg6cOxOXHFKykvGytTe-53">
          <mxGeometry relative="1" as="geometry" />
        </mxCell>
        <mxCell id="jZg6cOxOXHFKykvGytTe-42" value="20" style="edgeLabel;html=1;align=center;verticalAlign=middle;resizable=0;points=[];fontSize=25;fontFamily=Times New Roman;fontColor=default;" vertex="1" connectable="0" parent="jZg6cOxOXHFKykvGytTe-41">
          <mxGeometry x="0.1092" y="2" relative="1" as="geometry">
            <mxPoint x="4" y="-10" as="offset" />
          </mxGeometry>
        </mxCell>
        <mxCell id="jZg6cOxOXHFKykvGytTe-43" style="edgeStyle=none;shape=connector;rounded=0;orthogonalLoop=1;jettySize=auto;html=1;exitX=0.5;exitY=1;exitDx=0;exitDy=0;entryX=0.5;entryY=0;entryDx=0;entryDy=0;labelBackgroundColor=default;strokeColor=default;align=center;verticalAlign=middle;fontFamily=Times New Roman;fontSize=25;fontColor=default;endArrow=none;endFill=0;" edge="1" parent="1" source="jZg6cOxOXHFKykvGytTe-49" target="jZg6cOxOXHFKykvGytTe-56">
          <mxGeometry relative="1" as="geometry" />
        </mxCell>
        <mxCell id="jZg6cOxOXHFKykvGytTe-44" value="&lt;font style=&quot;font-size: 25px;&quot; face=&quot;Times New Roman&quot;&gt;20&lt;/font&gt;" style="edgeLabel;html=1;align=center;verticalAlign=middle;resizable=0;points=[];fontSize=11;fontFamily=Helvetica;fontColor=default;" vertex="1" connectable="0" parent="jZg6cOxOXHFKykvGytTe-43">
          <mxGeometry x="-0.3727" y="2" relative="1" as="geometry">
            <mxPoint y="9" as="offset" />
          </mxGeometry>
        </mxCell>
        <mxCell id="jZg6cOxOXHFKykvGytTe-45" style="edgeStyle=none;shape=connector;rounded=0;orthogonalLoop=1;jettySize=auto;html=1;exitX=0.5;exitY=1;exitDx=0;exitDy=0;entryX=0.5;entryY=0;entryDx=0;entryDy=0;labelBackgroundColor=default;strokeColor=default;align=center;verticalAlign=middle;fontFamily=Times New Roman;fontSize=25;fontColor=default;endArrow=none;endFill=0;" edge="1" parent="1" source="jZg6cOxOXHFKykvGytTe-49" target="jZg6cOxOXHFKykvGytTe-59">
          <mxGeometry relative="1" as="geometry" />
        </mxCell>
        <mxCell id="jZg6cOxOXHFKykvGytTe-46" value="&lt;font style=&quot;font-size: 25px;&quot; face=&quot;Times New Roman&quot;&gt;10&lt;/font&gt;" style="edgeLabel;html=1;align=center;verticalAlign=middle;resizable=0;points=[];fontSize=11;fontFamily=Helvetica;fontColor=default;" vertex="1" connectable="0" parent="jZg6cOxOXHFKykvGytTe-45">
          <mxGeometry x="-0.2556" y="-2" relative="1" as="geometry">
            <mxPoint y="-1" as="offset" />
          </mxGeometry>
        </mxCell>
        <mxCell id="jZg6cOxOXHFKykvGytTe-47" style="edgeStyle=none;shape=connector;rounded=0;orthogonalLoop=1;jettySize=auto;html=1;exitX=0.5;exitY=1;exitDx=0;exitDy=0;entryX=0.5;entryY=0;entryDx=0;entryDy=0;labelBackgroundColor=default;strokeColor=default;align=center;verticalAlign=middle;fontFamily=Times New Roman;fontSize=25;fontColor=default;endArrow=none;endFill=0;" edge="1" parent="1" source="jZg6cOxOXHFKykvGytTe-49" target="jZg6cOxOXHFKykvGytTe-60">
          <mxGeometry relative="1" as="geometry" />
        </mxCell>
        <mxCell id="jZg6cOxOXHFKykvGytTe-48" value="&lt;font style=&quot;font-size: 25px;&quot; face=&quot;Times New Roman&quot;&gt;10&lt;/font&gt;" style="edgeLabel;html=1;align=center;verticalAlign=middle;resizable=0;points=[];fontSize=11;fontFamily=Helvetica;fontColor=default;" vertex="1" connectable="0" parent="jZg6cOxOXHFKykvGytTe-47">
          <mxGeometry x="-0.4332" y="7" relative="1" as="geometry">
            <mxPoint x="5" y="6" as="offset" />
          </mxGeometry>
        </mxCell>
        <mxCell id="jZg6cOxOXHFKykvGytTe-49" value="A" style="ellipse;whiteSpace=wrap;html=1;aspect=fixed;fontFamily=Times New Roman;fontSize=40;fillColor=none;gradientColor=none;strokeColor=#000000;" vertex="1" parent="1">
          <mxGeometry x="535" y="611" width="50" height="50" as="geometry" />
        </mxCell>
        <mxCell id="jZg6cOxOXHFKykvGytTe-50" value="C" style="ellipse;whiteSpace=wrap;html=1;aspect=fixed;fontFamily=Times New Roman;fontSize=40;" vertex="1" parent="1">
          <mxGeometry x="355" y="830" width="50" height="50" as="geometry" />
        </mxCell>
        <mxCell id="jZg6cOxOXHFKykvGytTe-51" style="edgeStyle=none;shape=connector;rounded=0;orthogonalLoop=1;jettySize=auto;html=1;exitX=0.5;exitY=0;exitDx=0;exitDy=0;entryX=0.5;entryY=1;entryDx=0;entryDy=0;labelBackgroundColor=default;strokeColor=default;align=center;verticalAlign=middle;fontFamily=Times New Roman;fontSize=25;fontColor=default;endArrow=none;endFill=0;" edge="1" parent="1" source="jZg6cOxOXHFKykvGytTe-53" target="jZg6cOxOXHFKykvGytTe-36">
          <mxGeometry relative="1" as="geometry" />
        </mxCell>
        <mxCell id="jZg6cOxOXHFKykvGytTe-52" value="&lt;font style=&quot;font-size: 25px;&quot; face=&quot;Times New Roman&quot;&gt;20&lt;/font&gt;" style="edgeLabel;html=1;align=center;verticalAlign=middle;resizable=0;points=[];fontSize=11;fontFamily=Helvetica;fontColor=default;" vertex="1" connectable="0" parent="jZg6cOxOXHFKykvGytTe-51">
          <mxGeometry x="0.3248" y="-1" relative="1" as="geometry">
            <mxPoint x="1" y="-8" as="offset" />
          </mxGeometry>
        </mxCell>
        <mxCell id="jZg6cOxOXHFKykvGytTe-53" value="C" style="ellipse;whiteSpace=wrap;html=1;aspect=fixed;fontFamily=Times New Roman;fontSize=40;" vertex="1" parent="1">
          <mxGeometry x="455" y="830" width="50" height="50" as="geometry" />
        </mxCell>
        <mxCell id="jZg6cOxOXHFKykvGytTe-54" style="edgeStyle=none;shape=connector;rounded=0;orthogonalLoop=1;jettySize=auto;html=1;exitX=0.5;exitY=0;exitDx=0;exitDy=0;entryX=0.5;entryY=1;entryDx=0;entryDy=0;labelBackgroundColor=default;strokeColor=default;align=center;verticalAlign=middle;fontFamily=Times New Roman;fontSize=25;fontColor=default;endArrow=none;endFill=0;" edge="1" parent="1" source="jZg6cOxOXHFKykvGytTe-56" target="jZg6cOxOXHFKykvGytTe-36">
          <mxGeometry relative="1" as="geometry" />
        </mxCell>
        <mxCell id="jZg6cOxOXHFKykvGytTe-55" value="&lt;font style=&quot;font-size: 25px;&quot; face=&quot;Times New Roman&quot;&gt;20&lt;/font&gt;" style="edgeLabel;html=1;align=center;verticalAlign=middle;resizable=0;points=[];fontSize=11;fontFamily=Helvetica;fontColor=default;" vertex="1" connectable="0" parent="jZg6cOxOXHFKykvGytTe-54">
          <mxGeometry x="0.3224" y="-4" relative="1" as="geometry">
            <mxPoint y="1" as="offset" />
          </mxGeometry>
        </mxCell>
        <mxCell id="jZg6cOxOXHFKykvGytTe-56" value="C" style="ellipse;whiteSpace=wrap;html=1;aspect=fixed;fontFamily=Times New Roman;fontSize=40;" vertex="1" parent="1">
          <mxGeometry x="554" y="826.5" width="50" height="50" as="geometry" />
        </mxCell>
        <mxCell id="jZg6cOxOXHFKykvGytTe-57" style="edgeStyle=none;shape=connector;rounded=0;orthogonalLoop=1;jettySize=auto;html=1;exitX=0.5;exitY=0;exitDx=0;exitDy=0;labelBackgroundColor=default;strokeColor=default;align=center;verticalAlign=middle;fontFamily=Times New Roman;fontSize=25;fontColor=default;endArrow=none;endFill=0;entryX=0.5;entryY=1;entryDx=0;entryDy=0;" edge="1" parent="1" source="jZg6cOxOXHFKykvGytTe-59" target="jZg6cOxOXHFKykvGytTe-36">
          <mxGeometry relative="1" as="geometry">
            <mxPoint x="745" y="660" as="targetPoint" />
          </mxGeometry>
        </mxCell>
        <mxCell id="jZg6cOxOXHFKykvGytTe-58" value="&lt;font style=&quot;font-size: 25px;&quot; face=&quot;Times New Roman&quot;&gt;10&lt;/font&gt;" style="edgeLabel;html=1;align=center;verticalAlign=middle;resizable=0;points=[];fontSize=11;fontFamily=Helvetica;fontColor=default;" vertex="1" connectable="0" parent="jZg6cOxOXHFKykvGytTe-57">
          <mxGeometry x="0.054" y="-1" relative="1" as="geometry">
            <mxPoint x="12" y="-19" as="offset" />
          </mxGeometry>
        </mxCell>
        <mxCell id="jZg6cOxOXHFKykvGytTe-59" value="C" style="ellipse;whiteSpace=wrap;html=1;aspect=fixed;fontFamily=Times New Roman;fontSize=40;" vertex="1" parent="1">
          <mxGeometry x="655" y="827.25" width="50" height="50" as="geometry" />
        </mxCell>
        <mxCell id="jZg6cOxOXHFKykvGytTe-60" value="C" style="ellipse;whiteSpace=wrap;html=1;aspect=fixed;fontFamily=Times New Roman;fontSize=40;fillColor=none;gradientColor=none;strokeColor=#000000;" vertex="1" parent="1">
          <mxGeometry x="755" y="826.5" width="50" height="50" as="geometry" />
        </mxCell>
        <mxCell id="jZg6cOxOXHFKykvGytTe-61" value="&lt;font style=&quot;font-size: 40px;&quot;&gt;.......&lt;/font&gt;" style="text;html=1;strokeColor=none;fillColor=none;align=center;verticalAlign=middle;whiteSpace=wrap;rounded=0;fontSize=25;fontFamily=Times New Roman;fontColor=default;" vertex="1" parent="1">
          <mxGeometry x="662" y="390" width="60" height="30" as="geometry" />
        </mxCell>
        <mxCell id="jZg6cOxOXHFKykvGytTe-62" value="$$v_{9}$$" style="text;html=1;strokeColor=none;fillColor=none;align=center;verticalAlign=middle;whiteSpace=wrap;rounded=0;fontFamily=Times New Roman;fontSize=40;" vertex="1" parent="1">
          <mxGeometry x="375" y="343" width="60" height="30" as="geometry" />
        </mxCell>
        <mxCell id="jZg6cOxOXHFKykvGytTe-63" value="$$v_{1001}$$" style="text;html=1;strokeColor=none;fillColor=none;align=center;verticalAlign=middle;whiteSpace=wrap;rounded=0;fontFamily=Times New Roman;fontSize=40;" vertex="1" parent="1">
          <mxGeometry x="505" y="340" width="60" height="30" as="geometry" />
        </mxCell>
        <mxCell id="jZg6cOxOXHFKykvGytTe-64" value="$$v_{1002}$$" style="text;html=1;strokeColor=none;fillColor=none;align=center;verticalAlign=middle;whiteSpace=wrap;rounded=0;fontFamily=Times New Roman;fontSize=40;" vertex="1" parent="1">
          <mxGeometry x="590" y="340" width="60" height="30" as="geometry" />
        </mxCell>
        <mxCell id="jZg6cOxOXHFKykvGytTe-65" value="$$v_{{2000}}$$" style="text;html=1;strokeColor=none;fillColor=none;align=center;verticalAlign=middle;whiteSpace=wrap;rounded=0;fontFamily=Times New Roman;fontSize=40;" vertex="1" parent="1">
          <mxGeometry x="730" y="340" width="60" height="30" as="geometry" />
        </mxCell>
        <mxCell id="jZg6cOxOXHFKykvGytTe-66" value="$$v_{3}$$" style="text;html=1;strokeColor=none;fillColor=none;align=center;verticalAlign=middle;whiteSpace=wrap;rounded=0;fontFamily=Times New Roman;fontSize=40;" vertex="1" parent="1">
          <mxGeometry x="270" y="580" width="60" height="30" as="geometry" />
        </mxCell>
        <mxCell id="jZg6cOxOXHFKykvGytTe-67" value="$$v_{1}$$" style="text;html=1;strokeColor=none;fillColor=none;align=center;verticalAlign=middle;whiteSpace=wrap;rounded=0;fontFamily=Times New Roman;fontSize=40;" vertex="1" parent="1">
          <mxGeometry x="475" y="580" width="60" height="30" as="geometry" />
        </mxCell>
        <mxCell id="jZg6cOxOXHFKykvGytTe-68" value="$$v_{2}$$" style="text;html=1;strokeColor=none;fillColor=none;align=center;verticalAlign=middle;whiteSpace=wrap;rounded=0;fontFamily=Times New Roman;fontSize=40;" vertex="1" parent="1">
          <mxGeometry x="670" y="586" width="60" height="30" as="geometry" />
        </mxCell>
        <mxCell id="jZg6cOxOXHFKykvGytTe-69" value="$$v_{4}$$" style="text;html=1;strokeColor=none;fillColor=none;align=center;verticalAlign=middle;whiteSpace=wrap;rounded=0;fontFamily=Times New Roman;fontSize=40;" vertex="1" parent="1">
          <mxGeometry x="355" y="890" width="60" height="30" as="geometry" />
        </mxCell>
        <mxCell id="jZg6cOxOXHFKykvGytTe-70" value="$$v_{5}$$" style="text;html=1;strokeColor=none;fillColor=none;align=center;verticalAlign=middle;whiteSpace=wrap;rounded=0;fontFamily=Times New Roman;fontSize=40;" vertex="1" parent="1">
          <mxGeometry x="450" y="890" width="60" height="30" as="geometry" />
        </mxCell>
        <mxCell id="jZg6cOxOXHFKykvGytTe-71" value="$$v_{6}$$" style="text;html=1;strokeColor=none;fillColor=none;align=center;verticalAlign=middle;whiteSpace=wrap;rounded=0;fontFamily=Times New Roman;fontSize=40;" vertex="1" parent="1">
          <mxGeometry x="544" y="890" width="60" height="30" as="geometry" />
        </mxCell>
        <mxCell id="jZg6cOxOXHFKykvGytTe-72" value="$$v_{7}$$" style="text;html=1;strokeColor=none;fillColor=none;align=center;verticalAlign=middle;whiteSpace=wrap;rounded=0;fontFamily=Times New Roman;fontSize=40;" vertex="1" parent="1">
          <mxGeometry x="650" y="890" width="60" height="30" as="geometry" />
        </mxCell>
        <mxCell id="jZg6cOxOXHFKykvGytTe-73" value="$$v_{8}$$" style="text;html=1;strokeColor=none;fillColor=none;align=center;verticalAlign=middle;whiteSpace=wrap;rounded=0;fontFamily=Times New Roman;fontSize=40;" vertex="1" parent="1">
          <mxGeometry x="750" y="890" width="60" height="30" as="geometry" />
        </mxCell>
        <mxCell id="jZg6cOxOXHFKykvGytTe-74" style="edgeStyle=none;shape=connector;rounded=0;orthogonalLoop=1;jettySize=auto;html=1;exitX=0.5;exitY=1;exitDx=0;exitDy=0;labelBackgroundColor=default;strokeColor=default;align=center;verticalAlign=middle;fontFamily=Helvetica;fontSize=11;fontColor=default;endArrow=none;endFill=0;" edge="1" parent="1" source="jZg6cOxOXHFKykvGytTe-63" target="jZg6cOxOXHFKykvGytTe-63">
          <mxGeometry relative="1" as="geometry" />
        </mxCell>
        <mxCell id="jZg6cOxOXHFKykvGytTe-75" value="D" style="ellipse;whiteSpace=wrap;html=1;aspect=fixed;fontFamily=Times New Roman;fontSize=40;fillColor=none;gradientColor=none;strokeColor=#000000;" vertex="1" parent="1">
          <mxGeometry x="280" y="393" width="50" height="50" as="geometry" />
        </mxCell>
        <mxCell id="jZg6cOxOXHFKykvGytTe-76" value="$$v_{10}$$" style="text;html=1;strokeColor=none;fillColor=none;align=center;verticalAlign=middle;whiteSpace=wrap;rounded=0;fontFamily=Times New Roman;fontSize=40;" vertex="1" parent="1">
          <mxGeometry x="270" y="343" width="60" height="30" as="geometry" />
        </mxCell>
        <mxCell id="jZg6cOxOXHFKykvGytTe-77" value="C" style="ellipse;whiteSpace=wrap;html=1;aspect=fixed;fontFamily=Times New Roman;fontSize=40;" vertex="1" parent="1">
          <mxGeometry x="270" y="830" width="50" height="50" as="geometry" />
        </mxCell>
        <mxCell id="jZg6cOxOXHFKykvGytTe-78" value="$$v_{11}$$" style="text;html=1;strokeColor=none;fillColor=none;align=center;verticalAlign=middle;whiteSpace=wrap;rounded=0;fontFamily=Times New Roman;fontSize=40;" vertex="1" parent="1">
          <mxGeometry x="260" y="890" width="60" height="30" as="geometry" />
        </mxCell>
        <mxCell id="Srg_IWJcjw5MxY4S_cwM-1" style="rounded=0;orthogonalLoop=1;jettySize=auto;html=1;exitX=0.5;exitY=0;exitDx=0;exitDy=0;entryX=0.64;entryY=1;entryDx=0;entryDy=0;entryPerimeter=0;endArrow=none;endFill=0;dashed=1;" edge="1" parent="1" source="jZg6cOxOXHFKykvGytTe-49" target="jZg6cOxOXHFKykvGytTe-75">
          <mxGeometry relative="1" as="geometry" />
        </mxCell>
      </root>
    </mxGraphModel>
  </diagram>
</mxfile>
